<?xml version="1.0" encoding="utf-8"?>
<!-- Generator: Adobe Illustrator 27.5.0, SVG Export Plug-In . SVG Version: 6.00 Build 0)  -->
<svg version="1.1" id="Layer_1" xmlns:xodm="http://www.corel.com/coreldraw/odm/2003"
	 xmlns="http://www.w3.org/2000/svg" xmlns:xlink="http://www.w3.org/1999/xlink" x="0px" y="0px" viewBox="0 0 7000 4046"
	 style="enable-background:new 0 0 7000 4046;" xml:space="preserve">
<rect y="45.81" style="fill-rule:evenodd;clip-rule:evenodd;" width="7000" height="4000"/>
<linearGradient id="SVGID_1_" gradientUnits="userSpaceOnUse" x1="814.8583" y1="1782.8246" x2="1115.3788" y2="129.9541">
	<stop  offset="0" style="stop-color:#333333"/>
	<stop  offset="1" style="stop-color:#FEFEFE"/>
</linearGradient>
<path style="fill-rule:evenodd;clip-rule:evenodd;fill:url(#SVGID_1_);" d="M0,45.81v3472.28
	c1027-47.13,2169.1-946.39,1845.2-1933.25C1383.46,178.05,284.31,45.81,0,45.81L0,45.81z"/>
<linearGradient id="SVGID_00000057841248797022754990000001771395498759262627_" gradientUnits="userSpaceOnUse" x1="1279.6182" y1="2727.7927" x2="1786.749" y2="1262.7488">
	<stop  offset="0" style="stop-color:#333333"/>
	<stop  offset="1" style="stop-color:#FEFEFE"/>
</linearGradient>
<path style="fill-rule:evenodd;clip-rule:evenodd;fill:url(#SVGID_00000057841248797022754990000001771395498759262627_);" d="
	M0,1235.77v2810.04h2533.22c229.23-318.03,364.36-708.4,364.36-1130.37c0-1068.9-866.52-1935.42-1935.42-1935.42
	C611.92,980.02,283.42,1073.07,0,1235.77L0,1235.77z"/>
<linearGradient id="SVGID_00000003074251711824880650000016879675588430123452_" gradientUnits="userSpaceOnUse" x1="2687.4968" y1="3963.8564" x2="3495.1475" y2="2367.3345">
	<stop  offset="0" style="stop-color:#333333"/>
	<stop  offset="1" style="stop-color:#FEFEFE"/>
</linearGradient>
<path style="fill-rule:evenodd;clip-rule:evenodd;fill:url(#SVGID_00000003074251711824880650000016879675588430123452_);" d="
	M817.55,4045.81h3869.74c-22.86-1049.05-880.34-1892.44-1934.87-1892.44S840.41,2996.76,817.55,4045.81L817.55,4045.81z"/>
<linearGradient id="SVGID_00000127046349160608008810000000396498075214613920_" gradientUnits="userSpaceOnUse" x1="679.8306" y1="3374.5703" x2="2858.6147" y2="3919.2644">
	<stop  offset="0" style="stop-color:#333333"/>
	<stop  offset="0.4599" style="stop-color:#909090"/>
	<stop  offset="1" style="stop-color:#FEFEFE"/>
</linearGradient>
<path style="fill-rule:evenodd;clip-rule:evenodd;fill:url(#SVGID_00000127046349160608008810000000396498075214613920_);" d="
	M0,3099.76v946.05h2770.43c-160.63-772.78-845.38-1353.46-1665.8-1353.46C683,2692.35,297.25,2845.78,0,3099.76L0,3099.76z"/>
<linearGradient id="SVGID_00000088840478277404461350000000755946898546411430_" gradientUnits="userSpaceOnUse" x1="1329.1249" y1="-9.3522" x2="-178.3441" y2="2600.7979" gradientTransform="matrix(1 0 0 -1 0 4048.1899)">
	<stop  offset="0" style="stop-color:#333333"/>
	<stop  offset="1" style="stop-color:#FEFEFE"/>
</linearGradient>
<path style="fill-rule:evenodd;clip-rule:evenodd;fill:url(#SVGID_00000088840478277404461350000000755946898546411430_);" d="
	M0,737.7v3308.11h241.65c694.96-214.02,1200.06-861.17,1200.06-1626.34C1441.71,1568.09,816.4,862.76,0,737.7L0,737.7z"/>
<defs>
	<filter id="Adobe_OpacityMaskFilter" filterUnits="userSpaceOnUse" x="0" y="737.7" width="1441.71" height="3308.11">
		<feColorMatrix  type="matrix" values="1 0 0 0 0  0 1 0 0 0  0 0 1 0 0  0 0 0 1 0"/>
	</filter>
</defs>
<mask maskUnits="userSpaceOnUse" x="0" y="737.7" width="1441.71" height="3308.11" id="id0_00000094596542939780530930000003379809899731680922_">
	<defs>
		
			<filter id="Adobe_OpacityMaskFilter_00000044890154212458068900000005221628731945007233_" filterUnits="userSpaceOnUse" x="-1.04" y="736.66" width="1443.79" height="3310.19">
			<feFlood  style="flood-color:white;flood-opacity:1" result="back"/>
			<feBlend  in="SourceGraphic" in2="back" mode="normal"/>
		</filter>
	</defs>
	
		<mask maskUnits="userSpaceOnUse" x="-1.04" y="736.66" width="1443.79" height="3310.19" id="id0_00000094596542939780530930000003379809899731680922_" style="filter:url(#Adobe_OpacityMaskFilter);">
		<g style="filter:url(#Adobe_OpacityMaskFilter_00000044890154212458068900000005221628731945007233_);">
			<defs>
				
					<filter id="Adobe_OpacityMaskFilter_00000159449168133403221990000016494340773298110103_" filterUnits="userSpaceOnUse" x="-1.04" y="736.66" width="1443.79" height="3310.19">
					<feFlood  style="flood-color:white;flood-opacity:1" result="back"/>
					<feBlend  in="SourceGraphic" in2="back" mode="normal"/>
				</filter>
			</defs>
			
				<mask maskUnits="userSpaceOnUse" x="-1.04" y="736.66" width="1443.79" height="3310.19" id="id0_00000094596542939780530930000003379809899731680922_">
				<g style="filter:url(#Adobe_OpacityMaskFilter_00000159449168133403221990000016494340773298110103_);">
				</g>
			</mask>
			
				<linearGradient id="SVGID_00000159434107101551060500000002210934405941672354_" gradientUnits="userSpaceOnUse" x1="720.855" y1="3929.2908" x2="720.855" y2="175.9658" gradientTransform="matrix(1 0 0 -1 0 4048.1899)">
				<stop  offset="0" style="stop-color:#FFFFFF"/>
				<stop  offset="1" style="stop-color:#000000"/>
			</linearGradient>
			
				<rect x="-1.04" y="736.66" style="mask:url(#id0_00000094596542939780530930000003379809899731680922_);fill-rule:evenodd;clip-rule:evenodd;fill:url(#SVGID_00000159434107101551060500000002210934405941672354_);" width="1443.79" height="3310.19"/>
		</g>
	</mask>
	
		<linearGradient id="SVGID_00000173874470813062196390000008686504825035747738_" gradientUnits="userSpaceOnUse" x1="720.855" y1="3929.2908" x2="720.855" y2="175.9658" gradientTransform="matrix(1 0 0 -1 0 4048.1899)">
		<stop  offset="0" style="stop-color:#FFFFFF"/>
		<stop  offset="1" style="stop-color:#FFFFFF"/>
	</linearGradient>
	
		<rect x="-1.04" y="736.66" style="fill-rule:evenodd;clip-rule:evenodd;fill:url(#SVGID_00000173874470813062196390000008686504825035747738_);" width="1443.79" height="3310.19"/>
</mask>
<path style="fill-rule:evenodd;clip-rule:evenodd;fill:#FFFFFF;" d="M0,737.7c816.4,125.06,1441.71,830.39,1441.71,1681.77
	c0,102.76-9.11,203.4-26.57,301.15c-112.53,630.04-571.87,1139.91-1173.49,1325.19c475.98-277.46,773.02-794.19,767.08-1350.8
	c-1.18-110.92-14.4-223.42-40.62-335.93C845.8,1834.43,469.76,1435.01,0,1260.34L0,737.7L0,737.7z"/>
<defs>
	
		<filter id="Adobe_OpacityMaskFilter_00000148624654120199683340000005376834982261850781_" filterUnits="userSpaceOnUse" x="1222.95" y="2720.62" width="1547.48" height="1325.19">
		<feColorMatrix  type="matrix" values="1 0 0 0 0  0 1 0 0 0  0 0 1 0 0  0 0 0 1 0"/>
	</filter>
</defs>
<mask maskUnits="userSpaceOnUse" x="1222.95" y="2720.62" width="1547.48" height="1325.19" id="id2_00000164509461651318827710000001946291238793968549_">
	<defs>
		
			<filter id="Adobe_OpacityMaskFilter_00000111176460542900768190000006029832294221056651_" filterUnits="userSpaceOnUse" x="1221.91" y="2719.58" width="1549.56" height="1327.27">
			<feFlood  style="flood-color:white;flood-opacity:1" result="back"/>
			<feBlend  in="SourceGraphic" in2="back" mode="normal"/>
		</filter>
	</defs>
	
		<mask maskUnits="userSpaceOnUse" x="1221.91" y="2719.58" width="1549.56" height="1327.27" id="id2_00000164509461651318827710000001946291238793968549_" style="filter:url(#Adobe_OpacityMaskFilter_00000148624654120199683340000005376834982261850781_);">
		<g style="filter:url(#Adobe_OpacityMaskFilter_00000111176460542900768190000006029832294221056651_);">
			<defs>
				
					<filter id="Adobe_OpacityMaskFilter_00000005227929822631108670000017779861812860321442_" filterUnits="userSpaceOnUse" x="1221.91" y="2719.58" width="1549.56" height="1327.27">
					<feFlood  style="flood-color:white;flood-opacity:1" result="back"/>
					<feBlend  in="SourceGraphic" in2="back" mode="normal"/>
				</filter>
			</defs>
			
				<mask maskUnits="userSpaceOnUse" x="1221.91" y="2719.58" width="1549.56" height="1327.27" id="id2_00000164509461651318827710000001946291238793968549_">
				<g style="filter:url(#Adobe_OpacityMaskFilter_00000005227929822631108670000017779861812860321442_);">
				</g>
			</mask>
			
				<linearGradient id="SVGID_00000082367886108346933790000006341558554484916388_" gradientUnits="userSpaceOnUse" x1="3043.5728" y1="-212.0605" x2="1386.7867" y2="1175.9272" gradientTransform="matrix(1 0 0 -1 0 4048.1899)">
				<stop  offset="0" style="stop-color:#FFFFFF"/>
				<stop  offset="1" style="stop-color:#000000"/>
			</linearGradient>
			
				<rect x="1221.91" y="2719.58" style="mask:url(#id2_00000164509461651318827710000001946291238793968549_);fill-rule:evenodd;clip-rule:evenodd;fill:url(#SVGID_00000082367886108346933790000006341558554484916388_);" width="1549.56" height="1327.27"/>
		</g>
	</mask>
	
		<linearGradient id="SVGID_00000126289542939950946040000017852589437460993186_" gradientUnits="userSpaceOnUse" x1="3043.5728" y1="-212.0605" x2="1386.7867" y2="1175.9272" gradientTransform="matrix(1 0 0 -1 0 4048.1899)">
		<stop  offset="0" style="stop-color:#FFFFFF"/>
		<stop  offset="1" style="stop-color:#FFFFFF"/>
	</linearGradient>
	
		<rect x="1221.91" y="2719.58" style="fill-rule:evenodd;clip-rule:evenodd;fill:url(#SVGID_00000126289542939950946040000017852589437460993186_);" width="1549.56" height="1327.27"/>
</mask>
<path style="fill-rule:evenodd;clip-rule:evenodd;fill:#FFFFFF;" d="M1415.14,2720.62c678.18,125.06,1215.42,652.3,1355.29,1325.19
	c-332.63-528.96-931.08-830.49-1547.48-791.14C1315.07,3091.48,1381.04,2911.57,1415.14,2720.62L1415.14,2720.62z"/>
<defs>
	
		<filter id="Adobe_OpacityMaskFilter_00000061473659113297045500000006158741494748473272_" filterUnits="userSpaceOnUse" x="1419.77" y="2153.37" width="3267.52" height="1892.44">
		<feColorMatrix  type="matrix" values="1 0 0 0 0  0 1 0 0 0  0 0 1 0 0  0 0 0 1 0"/>
	</filter>
</defs>
<mask maskUnits="userSpaceOnUse" x="1419.77" y="2153.37" width="3267.52" height="1892.44" id="id4_00000056414105611049611250000017775881930463561119_">
	<defs>
		
			<filter id="Adobe_OpacityMaskFilter_00000129191856060812344860000016735265887799662750_" filterUnits="userSpaceOnUse" x="1418.73" y="2152.33" width="3269.6" height="1894.52">
			<feFlood  style="flood-color:white;flood-opacity:1" result="back"/>
			<feBlend  in="SourceGraphic" in2="back" mode="normal"/>
		</filter>
	</defs>
	
		<mask maskUnits="userSpaceOnUse" x="1418.73" y="2152.33" width="3269.6" height="1894.52" id="id4_00000056414105611049611250000017775881930463561119_" style="filter:url(#Adobe_OpacityMaskFilter_00000061473659113297045500000006158741494748473272_);">
		<g style="filter:url(#Adobe_OpacityMaskFilter_00000129191856060812344860000016735265887799662750_);">
			<defs>
				
					<filter id="Adobe_OpacityMaskFilter_00000034070990285054698840000004886352844050479015_" filterUnits="userSpaceOnUse" x="1418.73" y="2152.33" width="3269.6" height="1894.52">
					<feFlood  style="flood-color:white;flood-opacity:1" result="back"/>
					<feBlend  in="SourceGraphic" in2="back" mode="normal"/>
				</filter>
			</defs>
			
				<mask maskUnits="userSpaceOnUse" x="1418.73" y="2152.33" width="3269.6" height="1894.52" id="id4_00000056414105611049611250000017775881930463561119_">
				<g style="filter:url(#Adobe_OpacityMaskFilter_00000034070990285054698840000004886352844050479015_);">
				</g>
			</mask>
			
				<linearGradient id="SVGID_00000020365798702449310830000003623904369628120449_" gradientUnits="userSpaceOnUse" x1="2012.4825" y1="2866.0669" x2="3667.5066" y2="-182.2603" gradientTransform="matrix(1 0 0 -1 0 4048.1899)">
				<stop  offset="0" style="stop-color:#FFFFFF"/>
				<stop  offset="1" style="stop-color:#000000"/>
			</linearGradient>
			
				<rect x="1418.73" y="2152.33" style="mask:url(#id4_00000056414105611049611250000017775881930463561119_);fill-rule:evenodd;clip-rule:evenodd;fill:url(#SVGID_00000020365798702449310830000003623904369628120449_);" width="3269.6" height="1894.52"/>
		</g>
	</mask>
	
		<linearGradient id="SVGID_00000140731318523872403950000015296374962192020640_" gradientUnits="userSpaceOnUse" x1="2012.4825" y1="2866.0669" x2="3667.5066" y2="-182.2603" gradientTransform="matrix(1 0 0 -1 0 4048.1899)">
		<stop  offset="0" style="stop-color:#FFFFFF"/>
		<stop  offset="1" style="stop-color:#FFFFFF"/>
	</linearGradient>
	
		<rect x="1418.73" y="2152.33" style="fill-rule:evenodd;clip-rule:evenodd;fill:url(#SVGID_00000140731318523872403950000015296374962192020640_);" width="3269.6" height="1894.52"/>
</mask>
<path style="fill-rule:evenodd;clip-rule:evenodd;fill:#FFFFFF;" d="M4007.57,4045.81c0.92-720.68-471.98-1362.11-1161.09-1574.07
	c-76.88-23.64-156.46-41.95-238.36-54.42c-378.93-57.68-747.32,18.66-1057.02,193.59c-45.07,25.46-88.89,53-131.33,82.52
	c0.52-3.19,1.03-6.38,1.52-9.58c54.89-52.02,112.82-100.86,173.51-146.23c320.19-239.37,716.98-381.91,1146.98-384.22
	c3.55-0.02,7.09-0.03,10.64-0.03c1054.53,0,1912.01,843.39,1934.87,1892.44L4007.57,4045.81L4007.57,4045.81z"/>
<defs>
	
		<filter id="Adobe_OpacityMaskFilter_00000181802721339203841900000010997247427092337084_" filterUnits="userSpaceOnUse" x="679.51" y="980.02" width="2062.27" height="1173.39">
		<feColorMatrix  type="matrix" values="1 0 0 0 0  0 1 0 0 0  0 0 1 0 0  0 0 0 1 0"/>
	</filter>
</defs>
<mask maskUnits="userSpaceOnUse" x="679.51" y="980.02" width="2062.27" height="1173.39" id="id6_00000125564789831527035750000016993842205779896972_">
	<defs>
		
			<filter id="Adobe_OpacityMaskFilter_00000000921096417674308690000003106906847643629711_" filterUnits="userSpaceOnUse" x="678.47" y="978.98" width="2064.35" height="1175.47">
			<feFlood  style="flood-color:white;flood-opacity:1" result="back"/>
			<feBlend  in="SourceGraphic" in2="back" mode="normal"/>
		</filter>
	</defs>
	
		<mask maskUnits="userSpaceOnUse" x="678.47" y="978.98" width="2064.35" height="1175.47" id="id6_00000125564789831527035750000016993842205779896972_" style="filter:url(#Adobe_OpacityMaskFilter_00000181802721339203841900000010997247427092337084_);">
		<g style="filter:url(#Adobe_OpacityMaskFilter_00000000921096417674308690000003106906847643629711_);">
			<defs>
				
					<filter id="Adobe_OpacityMaskFilter_00000075148668461719483440000003437515040098350488_" filterUnits="userSpaceOnUse" x="678.47" y="978.98" width="2064.35" height="1175.47">
					<feFlood  style="flood-color:white;flood-opacity:1" result="back"/>
					<feBlend  in="SourceGraphic" in2="back" mode="normal"/>
				</filter>
			</defs>
			
				<mask maskUnits="userSpaceOnUse" x="678.47" y="978.98" width="2064.35" height="1175.47" id="id6_00000125564789831527035750000016993842205779896972_">
				<g style="filter:url(#Adobe_OpacityMaskFilter_00000075148668461719483440000003437515040098350488_);">
				</g>
			</mask>
			
				<linearGradient id="SVGID_00000006705037915385290160000009569730615880862108_" gradientUnits="userSpaceOnUse" x1="667.9552" y1="3232.7317" x2="2674.6619" y2="1786.9021" gradientTransform="matrix(1 0 0 -1 0 4048.1899)">
				<stop  offset="0" style="stop-color:#FFFFFF"/>
				<stop  offset="1" style="stop-color:#000000"/>
			</linearGradient>
			
				<rect x="678.47" y="978.98" style="mask:url(#id6_00000125564789831527035750000016993842205779896972_);fill-rule:evenodd;clip-rule:evenodd;fill:url(#SVGID_00000006705037915385290160000009569730615880862108_);" width="2064.35" height="1175.47"/>
		</g>
	</mask>
	
		<linearGradient id="SVGID_00000045577993577171742570000013197600929906245781_" gradientUnits="userSpaceOnUse" x1="667.9552" y1="3232.7317" x2="2674.6619" y2="1786.9021" gradientTransform="matrix(1 0 0 -1 0 4048.1899)">
		<stop  offset="0" style="stop-color:#FFFFFF"/>
		<stop  offset="1" style="stop-color:#FFFFFF"/>
	</linearGradient>
	
		<rect x="678.47" y="978.98" style="fill-rule:evenodd;clip-rule:evenodd;fill:url(#SVGID_00000045577993577171742570000013197600929906245781_);" width="2064.35" height="1175.47"/>
</mask>
<path style="fill-rule:evenodd;clip-rule:evenodd;fill:#FFFFFF;" d="M1845.11,1566.99c-218.06-67.84-449.45-97.59-684.05-83.97
	c-126.4-191.39-290.43-355.73-481.55-482.5c92.26-13.5,186.64-20.5,282.65-20.5c300.44,0,584.89,68.46,838.6,190.62
	c420.46,202.46,756.5,552.41,941.02,982.76c-0.74,0-1.48,0-2.22,0.01C2501.31,1876.67,2189.86,1674.23,1845.11,1566.99
	L1845.11,1566.99z"/>
<g>
	
		<linearGradient id="SVGID_00000153683504413530438490000008409064511730773914_" gradientUnits="userSpaceOnUse" x1="6332.144" y1="3323.3604" x2="4555.7651" y2="4244.8403" gradientTransform="matrix(1 0 0 -1 0 4048.1899)">
		<stop  offset="0" style="stop-color:#333333"/>
		<stop  offset="1" style="stop-color:#FEFEFE"/>
	</linearGradient>
	<path style="fill-rule:evenodd;clip-rule:evenodd;fill:url(#SVGID_00000153683504413530438490000008409064511730773914_);" d="
		M7000,946.24V0.19H4229.57c160.63,772.78,845.37,1353.46,1665.8,1353.46C6317,1353.65,6702.74,1200.22,7000,946.24L7000,946.24z"/>
	
		<linearGradient id="SVGID_00000114040625830454138340000003681757385613888190_" gradientUnits="userSpaceOnUse" x1="7267.272" y1="3519.9924" x2="5759.8066" y2="909.8483" gradientTransform="matrix(1 0 0 -1 0 4048.1899)">
		<stop  offset="0" style="stop-color:#333333"/>
		<stop  offset="1" style="stop-color:#FEFEFE"/>
	</linearGradient>
	<path style="fill-rule:evenodd;clip-rule:evenodd;fill:url(#SVGID_00000114040625830454138340000003681757385613888190_);" d="
		M7000,3308.3V0.19h-241.65C6063.39,214.2,5558.28,861.36,5558.28,1626.53C5558.28,2477.91,6183.59,3183.23,7000,3308.3L7000,3308.3
		z"/>
	<defs>
		
			<filter id="Adobe_OpacityMaskFilter_00000045611628577774449750000002945594169694670732_" filterUnits="userSpaceOnUse" x="5558.28" y="0.19" width="1441.72" height="3308.11">
			<feColorMatrix  type="matrix" values="1 0 0 0 0  0 1 0 0 0  0 0 1 0 0  0 0 0 1 0"/>
		</filter>
	</defs>
	
		<mask maskUnits="userSpaceOnUse" x="5558.28" y="0.19" width="1441.72" height="3308.11" id="id8_00000052098013902441387050000003245301944528098981_">
		<defs>
			
				<filter id="Adobe_OpacityMaskFilter_00000101082268451509387280000007202977447700452787_" filterUnits="userSpaceOnUse" x="5557.24" y="-0.85" width="1443.8" height="3310.19">
				<feFlood  style="flood-color:white;flood-opacity:1" result="back"/>
				<feBlend  in="SourceGraphic" in2="back" mode="normal"/>
			</filter>
		</defs>
		
			<mask maskUnits="userSpaceOnUse" x="5557.24" y="-0.85" width="1443.8" height="3310.19" id="id8_00000052098013902441387050000003245301944528098981_" style="filter:url(#Adobe_OpacityMaskFilter_00000045611628577774449750000002945594169694670732_);">
			<g style="filter:url(#Adobe_OpacityMaskFilter_00000101082268451509387280000007202977447700452787_);">
				<defs>
					
						<filter id="Adobe_OpacityMaskFilter_00000085215530826016181570000009357633140637168293_" filterUnits="userSpaceOnUse" x="5557.24" y="-0.85" width="1443.8" height="3310.19">
						<feFlood  style="flood-color:white;flood-opacity:1" result="back"/>
						<feBlend  in="SourceGraphic" in2="back" mode="normal"/>
					</filter>
				</defs>
				
					<mask maskUnits="userSpaceOnUse" x="5557.24" y="-0.85" width="1443.8" height="3310.19" id="id8_00000052098013902441387050000003245301944528098981_">
					<g style="filter:url(#Adobe_OpacityMaskFilter_00000085215530826016181570000009357633140637168293_);">
					</g>
				</mask>
				
					<linearGradient id="SVGID_00000089552557033344899020000012939706726670934959_" gradientUnits="userSpaceOnUse" x1="6279.1401" y1="121.0991" x2="6279.1401" y2="3874.3911" gradientTransform="matrix(1 0 0 -1 0 4048.1899)">
					<stop  offset="0" style="stop-color:#FFFFFF"/>
					<stop  offset="1" style="stop-color:#000000"/>
				</linearGradient>
				
					<rect x="5557.24" y="-0.85" style="mask:url(#id8_00000052098013902441387050000003245301944528098981_);fill-rule:evenodd;clip-rule:evenodd;fill:url(#SVGID_00000089552557033344899020000012939706726670934959_);" width="1443.8" height="3310.19"/>
			</g>
		</mask>
		
			<linearGradient id="SVGID_00000049203726831957354590000015737812909226843816_" gradientUnits="userSpaceOnUse" x1="6279.1401" y1="121.0991" x2="6279.1401" y2="3874.3911" gradientTransform="matrix(1 0 0 -1 0 4048.1899)">
			<stop  offset="0" style="stop-color:#FFFFFF"/>
			<stop  offset="1" style="stop-color:#FFFFFF"/>
		</linearGradient>
		
			<rect x="5557.24" y="-0.85" style="fill-rule:evenodd;clip-rule:evenodd;fill:url(#SVGID_00000049203726831957354590000015737812909226843816_);" width="1443.8" height="3310.19"/>
	</mask>
	<path style="fill-rule:evenodd;clip-rule:evenodd;fill:#FFFFFF;" d="M7000,3308.3c-816.41-125.07-1441.72-830.39-1441.72-1681.77
		c0-102.77,9.11-203.4,26.57-301.15C5697.39,695.34,6156.73,185.46,6758.35,0.19c-475.98,277.46-773.03,794.18-767.08,1350.8
		c1.18,110.92,14.39,223.42,40.62,335.92c122.31,524.66,498.35,924.08,968.11,1098.75V3308.3L7000,3308.3z"/>
	<defs>
		
			<filter id="Adobe_OpacityMaskFilter_00000105412683288190147450000004940051095514739118_" filterUnits="userSpaceOnUse" x="4229.57" y="0.19" width="1547.48" height="1325.19">
			<feColorMatrix  type="matrix" values="1 0 0 0 0  0 1 0 0 0  0 0 1 0 0  0 0 0 1 0"/>
		</filter>
	</defs>
	
		<mask maskUnits="userSpaceOnUse" x="4229.57" y="0.19" width="1547.48" height="1325.19" id="id10_00000121965223468503132060000003244005623437153420_">
		<defs>
			
				<filter id="Adobe_OpacityMaskFilter_00000052088619430813472750000011693140045548656308_" filterUnits="userSpaceOnUse" x="4228.53" y="-0.85" width="1549.56" height="1327.27">
				<feFlood  style="flood-color:white;flood-opacity:1" result="back"/>
				<feBlend  in="SourceGraphic" in2="back" mode="normal"/>
			</filter>
		</defs>
		
			<mask maskUnits="userSpaceOnUse" x="4228.53" y="-0.85" width="1549.56" height="1327.27" id="id10_00000121965223468503132060000003244005623437153420_" style="filter:url(#Adobe_OpacityMaskFilter_00000105412683288190147450000004940051095514739118_);">
			<g style="filter:url(#Adobe_OpacityMaskFilter_00000052088619430813472750000011693140045548656308_);">
				<defs>
					
						<filter id="Adobe_OpacityMaskFilter_00000155850081530379714110000017981827296096945580_" filterUnits="userSpaceOnUse" x="4228.53" y="-0.85" width="1549.56" height="1327.27">
						<feFlood  style="flood-color:white;flood-opacity:1" result="back"/>
						<feBlend  in="SourceGraphic" in2="back" mode="normal"/>
					</filter>
				</defs>
				
					<mask maskUnits="userSpaceOnUse" x="4228.53" y="-0.85" width="1549.56" height="1327.27" id="id10_00000121965223468503132060000003244005623437153420_">
					<g style="filter:url(#Adobe_OpacityMaskFilter_00000155850081530379714110000017981827296096945580_);">
					</g>
				</mask>
				
					<linearGradient id="SVGID_00000078741816177427219120000017509171986044235660_" gradientUnits="userSpaceOnUse" x1="3956.4255" y1="4262.4482" x2="5613.2222" y2="2874.4417" gradientTransform="matrix(1 0 0 -1 0 4048.1899)">
					<stop  offset="0" style="stop-color:#FFFFFF"/>
					<stop  offset="1" style="stop-color:#000000"/>
				</linearGradient>
				
					<rect x="4228.53" y="-0.85" style="mask:url(#id10_00000121965223468503132060000003244005623437153420_);fill-rule:evenodd;clip-rule:evenodd;fill:url(#SVGID_00000078741816177427219120000017509171986044235660_);" width="1549.56" height="1327.27"/>
			</g>
		</mask>
		
			<linearGradient id="SVGID_00000070840348936423698920000016075381306525443977_" gradientUnits="userSpaceOnUse" x1="3956.4255" y1="4262.4482" x2="5613.2222" y2="2874.4417" gradientTransform="matrix(1 0 0 -1 0 4048.1899)">
			<stop  offset="0" style="stop-color:#FFFFFF"/>
			<stop  offset="1" style="stop-color:#FFFFFF"/>
		</linearGradient>
		
			<rect x="4228.53" y="-0.85" style="fill-rule:evenodd;clip-rule:evenodd;fill:url(#SVGID_00000070840348936423698920000016075381306525443977_);" width="1549.56" height="1327.27"/>
	</mask>
	<path style="fill-rule:evenodd;clip-rule:evenodd;fill:#FFFFFF;" d="M5584.85,1325.38C4906.68,1200.32,4369.43,673.07,4229.57,0.19
		c332.63,528.96,931.08,830.48,1547.48,791.14C5684.92,954.51,5618.96,1134.43,5584.85,1325.38z"/>
</g>
</svg>
