<?xml version="1.0" encoding="utf-8"?>
<!-- Generator: Adobe Illustrator 27.5.0, SVG Export Plug-In . SVG Version: 6.00 Build 0)  -->
<svg version="1.1" id="Layer_1" xmlns="http://www.w3.org/2000/svg" xmlns:xlink="http://www.w3.org/1999/xlink" x="0px" y="0px"
	 viewBox="0 0 5000 8000" style="enable-background:new 0 0 5000 8000;" xml:space="preserve">
<g>
	<g>
		<defs>
			<rect id="SVGID_1_" x="1.494" y="2.587" width="4998.384" height="7997.413"/>
		</defs>
		<clipPath id="SVGID_00000075153145501828767790000014868012412168798371_">
			<use xlink:href="#SVGID_1_"  style="overflow:visible;"/>
		</clipPath>
		
			<linearGradient id="SVGID_00000023257997351786185030000011643595243331891373_" gradientUnits="userSpaceOnUse" x1="652.1836" y1="-278.4579" x2="5062.1938" y2="9931.8301">
			<stop  offset="0" style="stop-color:#0463EE"/>
			<stop  offset="1" style="stop-color:#00C3FF"/>
		</linearGradient>
		
			<rect x="1.494" y="2.587" style="clip-path:url(#SVGID_00000075153145501828767790000014868012412168798371_);fill:url(#SVGID_00000023257997351786185030000011643595243331891373_);" width="4998.384" height="7997.413"/>
	</g>
	<defs>
		<filter id="Adobe_OpacityMaskFilter" filterUnits="userSpaceOnUse" x="831.922" y="2988.276" width="1257.951" height="1150.126">
			<feColorMatrix  type="matrix" values="1 0 0 0 0  0 1 0 0 0  0 0 1 0 0  0 0 0 1 0"/>
		</filter>
	</defs>
	
		<mask maskUnits="userSpaceOnUse" x="831.922" y="2988.276" width="1257.951" height="1150.126" id="SVGID_00000151505072771947762880000001804055546406041756_">
		<g style="filter:url(#Adobe_OpacityMaskFilter);">
			
				<linearGradient id="SVGID_00000118382277146248068390000014171329536460895362_" gradientUnits="userSpaceOnUse" x1="1081.7882" y1="8287.6357" x2="361.5221" y2="7452.6982" gradientTransform="matrix(1 0 0 1 867.4489 -4158.209)">
				<stop  offset="0" style="stop-color:#FFFFFF"/>
				<stop  offset="1" style="stop-color:#000000"/>
			</linearGradient>
			
				<rect x="831.922" y="2988.276" style="fill:url(#SVGID_00000118382277146248068390000014171329536460895362_);" width="1257.951" height="1150.126"/>
		</g>
	</mask>
	
		<path style="mask:url(#SVGID_00000151505072771947762880000001804055546406041756_);fill-rule:evenodd;clip-rule:evenodd;fill:#F5F5F5;" d="
		M1460.897,4138.402c347.374,0,628.975-257.463,628.975-575.065c0-317.598-281.601-575.061-628.975-575.061
		c-347.374,0-628.976,257.463-628.976,575.061C831.922,3880.94,1113.523,4138.402,1460.897,4138.402 M1911.861,3563.337
		c0,227.716-201.903,412.314-450.964,412.314c-249.063,0-450.966-184.599-450.966-412.314c0-227.711,201.903-412.31,450.966-412.31
		C1709.958,3151.027,1911.861,3335.626,1911.861,3563.337z"/>
	<defs>
		
			<filter id="Adobe_OpacityMaskFilter_00000163066459288508147240000006252415626940598664_" filterUnits="userSpaceOnUse" x="519.417" y="2.587" width="901.93" height="3857.283">
			<feColorMatrix  type="matrix" values="1 0 0 0 0  0 1 0 0 0  0 0 1 0 0  0 0 0 1 0"/>
		</filter>
	</defs>
	
		<mask maskUnits="userSpaceOnUse" x="519.417" y="2.587" width="901.93" height="3857.283" id="SVGID_00000036249947499746960870000002565889856845247112_">
		<g style="filter:url(#Adobe_OpacityMaskFilter_00000163066459288508147240000006252415626940598664_);">
			
				<linearGradient id="SVGID_00000109028608267639270580000007869350725945506486_" gradientUnits="userSpaceOnUse" x1="103.3929" y1="8844.9219" x2="162.9057" y2="4081.5051" gradientTransform="matrix(1 0 0 1 832.9473 -4188.96)">
				<stop  offset="0" style="stop-color:#FFFFFF"/>
				<stop  offset="1" style="stop-color:#000000"/>
			</linearGradient>
			
				<rect x="519.417" y="2.587" style="fill:url(#SVGID_00000109028608267639270580000007869350725945506486_);" width="901.93" height="3857.283"/>
		</g>
	</mask>
	
		<path style="mask:url(#SVGID_00000036249947499746960870000002565889856845247112_);fill-rule:evenodd;clip-rule:evenodd;fill:#F5F5F5;" d="
		M1421.347,3447.56V2.587h-901.93V3447.56c0,226.774,202.93,412.31,450.966,412.31
		C1218.414,3859.87,1421.347,3674.333,1421.347,3447.56"/>
	<defs>
		
			<filter id="Adobe_OpacityMaskFilter_00000152976593151355939920000000303138628164551064_" filterUnits="userSpaceOnUse" x="1243.335" y="4185.38" width="901.93" height="3814.62">
			<feColorMatrix  type="matrix" values="1 0 0 0 0  0 1 0 0 0  0 0 1 0 0  0 0 0 1 0"/>
		</filter>
	</defs>
	
		<mask maskUnits="userSpaceOnUse" x="1243.335" y="4185.38" width="901.93" height="3814.62" id="SVGID_00000156577729172969678770000003408142970347195030_">
		<g style="filter:url(#Adobe_OpacityMaskFilter_00000152976593151355939920000000303138628164551064_);">
			
				<linearGradient id="SVGID_00000054261153686937767570000005503689046602755223_" gradientUnits="userSpaceOnUse" x1="779.4911" y1="7211.3682" x2="782.8442" y2="11731.8721" gradientTransform="matrix(1 0 0 1 912.8704 -3731.8748)">
				<stop  offset="0" style="stop-color:#FFFFFF"/>
				<stop  offset="1" style="stop-color:#000000"/>
			</linearGradient>
			
				<rect x="1243.335" y="4185.38" style="fill:url(#SVGID_00000054261153686937767570000005503689046602755223_);" width="901.93" height="3814.62"/>
		</g>
	</mask>
	
		<path style="mask:url(#SVGID_00000156577729172969678770000003408142970347195030_);fill-rule:evenodd;clip-rule:evenodd;fill:#F5F5F5;" d="
		M1694.298,4185.38c-248.031,0-450.963,185.536-450.963,412.31V8000h901.93V4597.69
		C2145.265,4370.917,1942.332,4185.38,1694.298,4185.38"/>
	<defs>
		
			<filter id="Adobe_OpacityMaskFilter_00000127754173794612873770000001695152673223655080_" filterUnits="userSpaceOnUse" x="2237.747" y="4869.788" width="1257.951" height="1150.128">
			<feColorMatrix  type="matrix" values="1 0 0 0 0  0 1 0 0 0  0 0 1 0 0  0 0 0 1 0"/>
		</filter>
	</defs>
	
		<mask maskUnits="userSpaceOnUse" x="2237.747" y="4869.788" width="1257.951" height="1150.128" id="SVGID_00000157307463773466597960000016596891298141293458_">
		<g style="filter:url(#Adobe_OpacityMaskFilter_00000127754173794612873770000001695152673223655080_);">
			
				<linearGradient id="SVGID_00000012467460107328440450000012844820058378480537_" gradientUnits="userSpaceOnUse" x1="2110.1755" y1="8467.3857" x2="1762.8135" y2="9678.6689" gradientTransform="matrix(1 0 0 1 1022.6571 -3950.4832)">
				<stop  offset="0" style="stop-color:#FFFFFF"/>
				<stop  offset="1" style="stop-color:#000000"/>
			</linearGradient>
			
				<rect x="2237.747" y="4869.788" style="fill:url(#SVGID_00000012467460107328440450000012844820058378480537_);" width="1257.951" height="1150.128"/>
		</g>
	</mask>
	
		<path style="mask:url(#SVGID_00000157307463773466597960000016596891298141293458_);fill-rule:evenodd;clip-rule:evenodd;fill:#F5F5F5;" d="
		M2866.723,6019.916c347.374,0,628.976-257.465,628.976-575.065s-281.602-575.063-628.976-575.063s-628.976,257.463-628.976,575.063
		S2519.349,6019.916,2866.723,6019.916 M3317.689,5444.851c0,227.713-201.906,412.31-450.967,412.31
		s-450.966-184.597-450.966-412.31s201.905-412.312,450.966-412.312S3317.689,5217.137,3317.689,5444.851z"/>
	<defs>
		
			<filter id="Adobe_OpacityMaskFilter_00000157272879625693511000000017211625095359965335_" filterUnits="userSpaceOnUse" x="2311.413" y="5595.919" width="901.927" height="2404.081">
			<feColorMatrix  type="matrix" values="1 0 0 0 0  0 1 0 0 0  0 0 1 0 0  0 0 0 1 0"/>
		</filter>
	</defs>
	
		<mask maskUnits="userSpaceOnUse" x="2311.413" y="5595.919" width="901.927" height="2404.081" id="SVGID_00000034054503541681567700000004903158159713365694_">
		<g style="filter:url(#Adobe_OpacityMaskFilter_00000157272879625693511000000017211625095359965335_);">
			
				<linearGradient id="SVGID_00000122694787070610280010000007416254559489979582_" gradientUnits="userSpaceOnUse" x1="1774.5927" y1="8350.6797" x2="1705.2087" y2="11866.415" gradientTransform="matrix(1 0 0 1 1030.79 -3731.8748)">
				<stop  offset="0" style="stop-color:#FFFFFF"/>
				<stop  offset="1" style="stop-color:#000000"/>
			</linearGradient>
			
				<rect x="2311.413" y="5595.919" style="fill:url(#SVGID_00000122694787070610280010000007416254559489979582_);" width="901.928" height="2404.081"/>
		</g>
	</mask>
	
		<path style="mask:url(#SVGID_00000034054503541681567700000004903158159713365694_);fill-rule:evenodd;clip-rule:evenodd;fill:#F5F5F5;" d="
		M2311.413,6008.227V8000h901.927V6008.227c0-226.771-202.93-412.308-450.963-412.308S2311.413,5781.455,2311.413,6008.227"/>
	<defs>
		
			<filter id="Adobe_OpacityMaskFilter_00000108992117701459515180000010617096058454031521_" filterUnits="userSpaceOnUse" x="2354.878" y="2.587" width="901.93" height="3857.283">
			<feColorMatrix  type="matrix" values="1 0 0 0 0  0 1 0 0 0  0 0 1 0 0  0 0 0 1 0"/>
		</filter>
	</defs>
	
		<mask maskUnits="userSpaceOnUse" x="2354.878" y="2.587" width="901.93" height="3857.283" id="SVGID_00000021115611589423791720000009371114954340424366_">
		<g style="filter:url(#Adobe_OpacityMaskFilter_00000108992117701459515180000010617096058454031521_);">
			
				<linearGradient id="SVGID_00000064343823435943092450000002428652519106718392_" gradientUnits="userSpaceOnUse" x1="1736.212" y1="8844.9219" x2="1795.7247" y2="4081.5051" gradientTransform="matrix(1 0 0 1 1035.5887 -4188.96)">
				<stop  offset="0" style="stop-color:#FFFFFF"/>
				<stop  offset="1" style="stop-color:#000000"/>
			</linearGradient>
			
				<rect x="2354.878" y="2.587" style="fill:url(#SVGID_00000064343823435943092450000002428652519106718392_);" width="901.93" height="3857.283"/>
		</g>
	</mask>
	
		<path style="mask:url(#SVGID_00000021115611589423791720000009371114954340424366_);fill-rule:evenodd;clip-rule:evenodd;fill:#F5F5F5;" d="
		M3256.808,3447.56V2.587h-901.93V3447.56c0,226.774,202.932,412.31,450.966,412.31
		C3053.876,3859.87,3256.808,3674.333,3256.808,3447.56"/>
	<defs>
		
			<filter id="Adobe_OpacityMaskFilter_00000134232318127469964650000017352401720477615750_" filterUnits="userSpaceOnUse" x="3559.591" y="396.994" width="1257.952" height="1150.126">
			<feColorMatrix  type="matrix" values="1 0 0 0 0  0 1 0 0 0  0 0 1 0 0  0 0 0 1 0"/>
		</filter>
	</defs>
	
		<mask maskUnits="userSpaceOnUse" x="3559.591" y="396.994" width="1257.952" height="1150.126" id="SVGID_00000010297768792315667630000009793166959703523519_">
		<g style="filter:url(#Adobe_OpacityMaskFilter_00000134232318127469964650000017352401720477615750_);">
			
				<linearGradient id="SVGID_00000031926356749495717530000009920759058651489414_" gradientUnits="userSpaceOnUse" x1="2728.4771" y1="6564.3975" x2="3621.9258" y2="3045.5854" gradientTransform="matrix(1 0 0 1 1168.5934 -4444.2959)">
				<stop  offset="0" style="stop-color:#FFFFFF"/>
				<stop  offset="1" style="stop-color:#000000"/>
			</linearGradient>
			
				<rect x="3559.591" y="396.994" style="fill:url(#SVGID_00000031926356749495717530000009920759058651489414_);" width="1257.951" height="1150.126"/>
		</g>
	</mask>
	
		<path style="mask:url(#SVGID_00000010297768792315667630000009793166959703523519_);fill-rule:evenodd;clip-rule:evenodd;fill:#F5F5F5;" d="
		M4188.566,1547.12c347.375,0,628.977-257.463,628.977-575.061c0-317.602-281.602-575.065-628.977-575.065
		c-347.373,0-628.976,257.463-628.976,575.065C3559.591,1289.657,3841.194,1547.12,4188.566,1547.12 M4639.533,972.059
		c0,227.711-201.905,412.31-450.967,412.31c-249.061,0-450.966-184.599-450.966-412.31c0-227.716,201.905-412.314,450.966-412.314
		C4437.628,559.744,4639.533,744.343,4639.533,972.059z"/>
</g>
</svg>
