<?xml version="1.0" encoding="UTF-8"?>
<svg version="1.1" xmlns="http://www.w3.org/2000/svg" width="372" height="233">
<path d="M0 0 C1.07443359 -0.00128906 2.14886719 -0.00257812 3.25585938 -0.00390625 C4.93325195 0.00189453 4.93325195 0.00189453 6.64453125 0.0078125 C7.74345703 0.00394531 8.84238281 0.00007812 9.97460938 -0.00390625 C13.13787044 -0.00013373 16.29492767 0.04939599 19.45703125 0.1328125 C20.31377441 0.15118164 21.17051758 0.16955078 22.05322266 0.18847656 C26.62428828 0.4624914 29.70518894 1.23374855 33.15136719 4.54492188 C35.62778341 7.55662926 37.32618761 10.91830933 39.08203125 14.3828125 C43.68238686 23.03102574 49.00116524 30.8543962 54.75292969 38.76611328 C57.96195577 43.22288962 61.07817513 47.74458049 64.20703125 52.2578125 C65.57276201 54.22406576 66.93864891 56.19021059 68.3046875 58.15625 C68.98934082 59.14206055 69.67399414 60.12787109 70.37939453 61.14355469 C72.44325679 64.11299411 74.5101626 67.08028983 76.578125 70.046875 C83.34226918 79.75328839 90.06863918 89.48192065 96.72192383 99.26464844 C100.98805853 105.50932855 105.39242563 111.64741683 109.8815918 117.73364258 C112.7885437 121.70341194 115.5176513 125.74552386 118.14892578 129.90429688 C118.77090851 130.88603882 119.39289124 131.86778076 120.03372192 132.87927246 C120.503414 133.62294067 120.97310608 134.36660889 121.45703125 135.1328125 C121.4603414 134.45436342 121.46365154 133.77591434 121.467062 133.0769062 C121.54820219 116.58600958 121.64026485 100.09521407 121.74455833 83.60444832 C121.79472866 75.62971041 121.84117096 67.65498302 121.87890625 59.68017578 C121.91179701 52.73117395 121.95161186 45.78225264 121.99982131 38.83333957 C122.02511548 35.15227458 122.04688799 31.47126319 122.06037521 27.79013443 C122.07554306 23.68565505 122.106166 19.58143328 122.13818359 15.47705078 C122.14142387 13.63639038 122.14142387 13.63639038 122.14472961 11.75854492 C122.1558931 10.64512726 122.16705658 9.53170959 122.17855835 8.384552 C122.18408911 7.4129822 122.18961987 6.44141239 122.19531822 5.44040108 C122.45703125 3.1328125 122.45703125 3.1328125 124.45703125 1.1328125 C127.1468226 0.9330242 129.7313996 0.8529997 132.421875 0.8671875 C133.60554405 0.86431732 133.60554405 0.86431732 134.81312561 0.86138916 C136.48341185 0.86002717 138.15370867 0.8637246 139.82397461 0.87207031 C142.38093895 0.8827557 144.93719843 0.87218311 147.49414062 0.859375 C149.11588697 0.86069687 150.73763287 0.86325984 152.359375 0.8671875 C153.50792213 0.86111481 153.50792213 0.86111481 154.67967224 0.85491943 C158.47352376 0.8884145 160.22296158 0.97676606 163.45703125 3.1328125 C163.75797011 5.86194685 163.86124855 8.36552226 163.83798218 11.09776306 C163.84266215 11.9303999 163.84734212 12.76303673 163.85216391 13.62090498 C163.86418499 16.4270354 163.85462907 19.23268383 163.84521484 22.03881836 C163.84927742 24.04407538 163.85461753 26.04933017 163.86114502 28.05458069 C163.87486264 33.51322275 163.86950143 38.97169537 163.86000776 44.43034053 C163.85243309 50.13313565 163.85945075 55.83591588 163.86416626 61.53871155 C163.86963066 71.11820083 163.86241471 80.69762083 163.84814453 90.27709961 C163.83182139 101.36295278 163.83710138 112.44864042 163.85362375 123.53448957 C163.86722467 133.03939577 163.86916496 142.54425205 163.86130774 152.04916483 C163.85662295 157.73173236 163.85602836 163.41422202 163.86591721 169.09678459 C163.87456416 174.43932937 163.86860657 179.78166016 163.85123444 185.12418175 C163.84725723 187.08862706 163.84842461 189.05309028 163.85502243 191.01752853 C163.8631795 193.6922241 163.85298738 196.36622725 163.83798218 199.0408783 C163.84467434 199.82452898 163.85136651 200.60817967 163.85826147 201.41557735 C163.80112544 206.64006075 163.80112544 206.64006075 162.07872963 209.10657597 C157.94900747 211.71992985 152.2110998 210.99322496 147.45703125 211.1328125 C146.53986328 211.16536133 145.62269531 211.19791016 144.67773438 211.23144531 C141.60417796 211.32991848 138.53169073 211.39245925 135.45703125 211.4453125 C134.45381836 211.47520264 133.45060547 211.50509277 132.41699219 211.53588867 C131.46083008 211.54338135 130.50466797 211.55087402 129.51953125 211.55859375 C128.23755859 211.58046753 128.23755859 211.58046753 126.9296875 211.6027832 C122.49490686 210.75987713 120.12384856 208.00571328 117.45922852 204.51757812 C116.82041748 203.53466797 116.18160645 202.55175781 115.5234375 201.5390625 C114.79930664 200.4363501 114.07517578 199.3336377 113.32910156 198.19750977 C112.95257446 197.61623322 112.57604736 197.03495667 112.18811035 196.43606567 C110.19731405 193.36403593 108.17882105 190.31025059 106.1640625 187.25390625 C105.7617038 186.64199936 105.35934509 186.03009247 104.9447937 185.39964294 C101.45490851 180.1015434 97.86235335 174.88073278 94.20703125 169.6953125 C93.6457251 168.89867187 93.08441895 168.10203125 92.50610352 167.28125 C91.38576727 165.69358089 90.26460105 164.1064971 89.14257812 162.52001953 C86.23384779 158.40044172 83.34677678 154.26571805 80.45703125 150.1328125 C79.28786948 148.46216326 78.11859884 146.79159019 76.94921875 145.12109375 C76.37139648 144.29561035 75.79357422 143.47012695 75.19824219 142.61962891 C73.47520189 140.15876401 71.75137905 137.69844914 70.02734375 135.23828125 C67.11948647 131.08832873 64.21406812 126.93667876 61.31054688 122.78369141 C60.03367152 120.95751746 58.75629841 119.13169147 57.47851562 117.30615234 C49.02027763 105.21687306 40.65502307 93.07809601 32.53173828 80.76074219 C31.51135768 79.21510433 30.48437629 77.67383006 29.45703125 76.1328125 C28.64997639 92.7174745 28.2968898 109.26651515 28.32666016 125.87036133 C28.33213719 129.51582793 28.32661157 133.16117717 28.3203125 136.80664062 C28.32097152 139.14062527 28.32224899 141.47460984 28.32421875 143.80859375 C28.32219452 144.89070633 28.32017029 145.97281891 28.31808472 147.08772278 C28.32123688 148.08784897 28.32438904 149.08797516 28.32763672 150.1184082 C28.32843231 150.99342484 28.32922791 151.86844147 28.33004761 152.76997375 C28.45121806 155.02464402 28.82642956 156.97069647 29.45703125 159.1328125 C25.0855703 160.21122043 20.82210795 160.27792047 16.34765625 160.265625 C15.58024109 160.26658173 14.81282593 160.26753845 14.02215576 160.26852417 C12.40848712 160.2692021 10.79481569 160.26737493 9.18115234 160.26318359 C6.70143603 160.25780035 4.22189843 160.26315667 1.7421875 160.26953125 C0.17317668 160.26887098 -1.39583402 160.26759087 -2.96484375 160.265625 C-4.08194733 160.26866135 -4.08194733 160.26866135 -5.22161865 160.27175903 C-10.42799745 160.2477838 -10.42799745 160.2477838 -11.54296875 159.1328125 C-11.64409582 157.12514376 -11.67374415 155.11386484 -11.67668152 153.10365295 C-11.6809465 151.79256058 -11.68521149 150.4814682 -11.68960571 149.13064575 C-11.68925615 147.66400144 -11.68879459 146.19735714 -11.68823242 144.73071289 C-11.69122226 143.19688332 -11.69462438 141.6630545 -11.69841003 140.12922668 C-11.70727203 135.95159489 -11.70958907 131.77398356 -11.71022582 127.59634328 C-11.71117309 124.11453452 -11.71484927 120.63273058 -11.71839792 117.15092367 C-11.72655082 108.93956188 -11.72898139 100.72821107 -11.72827148 92.5168457 C-11.72767045 84.03320203 -11.73822541 75.5496219 -11.75401515 67.06599432 C-11.76707016 59.79381321 -11.77245624 52.52165291 -11.77181607 45.24946016 C-11.77156049 40.9010412 -11.77444498 36.55267866 -11.78499413 32.20427132 C-11.79464092 28.11593178 -11.79477796 24.027703 -11.78747749 19.93935966 C-11.78642737 18.4356813 -11.78881967 16.93199616 -11.79483795 15.42832947 C-11.80250045 13.3818853 -11.79673992 11.33540377 -11.79020691 9.28895569 C-11.79075168 8.14170045 -11.79129644 6.99444521 -11.79185772 5.81242466 C-11.54296875 3.1328125 -11.54296875 3.1328125 -9.54296875 1.1328125 C-6.36440816 0.03067879 -3.34403509 0.00389197 0 0 Z " fill="#1700AD" transform="translate(29.54296875,10.8671875)"/>
<path d="M0 0 C1.07138466 -0.0076664 1.07138466 -0.0076664 2.16441345 -0.01548767 C4.53929934 -0.02944431 6.91389616 -0.02841938 9.28881836 -0.02612305 C10.94917406 -0.03001279 12.60952877 -0.03434804 14.2698822 -0.03910828 C17.76458948 -0.04658789 21.25919585 -0.04627112 24.75390625 -0.04101562 C29.18478458 -0.03528383 33.61523627 -0.0519886 38.04604435 -0.0753603 C41.48581778 -0.09027687 44.92549344 -0.09094425 48.3652935 -0.08785057 C49.99520129 -0.08835703 51.62511557 -0.09346459 53.25499153 -0.10366249 C76.75603118 -0.23241027 101.17801451 3.89391813 118.84350586 20.75512695 C129.78352242 33.15637595 132.2437137 46.94289569 132.31616211 62.8996582 C132.34709961 64.56834961 132.34709961 64.56834961 132.37866211 66.27075195 C132.45604802 82.88937528 127.23158811 95.73504079 115.76538086 107.7668457 C92.75481523 129.14569249 61.31552995 126.2746582 32.06616211 126.2746582 C31.73616211 153.3346582 31.40616211 180.3946582 31.06616211 208.2746582 C27.90302058 209.85622897 24.50326668 209.4165517 21.03100586 209.4074707 C19.84022179 209.40890579 19.84022179 209.40890579 18.62538147 209.41036987 C16.94670533 209.41105071 15.26802656 209.4092031 13.58935547 209.4050293 C11.01060114 209.39967262 8.43202043 209.40498112 5.85327148 209.41137695 C4.22501589 209.41071629 2.5967604 209.40943538 0.96850586 209.4074707 C-0.19552513 209.41050705 -0.19552513 209.41050705 -1.3830719 209.41360474 C-6.81888206 209.38961403 -6.81888206 209.38961403 -7.93383789 208.2746582 C-8.02978014 206.69310973 -8.05571749 205.10726696 -8.05409241 203.52281189 C-8.05546707 202.49491043 -8.05684174 201.46700897 -8.05825806 200.40795898 C-8.05466278 199.27076416 -8.0510675 198.13356934 -8.04736328 196.96191406 C-8.04750931 195.77183243 -8.04765533 194.58175079 -8.04780579 193.35560608 C-8.04722683 190.08302547 -8.04219771 186.81048714 -8.03523183 183.53791499 C-8.02899756 180.12127156 -8.02839443 176.70462737 -8.02720642 173.28797913 C-8.02409332 166.81396553 -8.01588022 160.33996874 -8.00585693 153.86596256 C-7.99469514 146.497279 -7.98918518 139.12859465 -7.9841615 131.75990474 C-7.97369759 116.59814652 -7.95609855 101.43640404 -7.93383789 86.2746582 C-2.96146619 85.59421476 1.84765639 85.14359098 6.87426758 85.10107422 C8.16275604 85.08758438 9.45124451 85.07409454 10.77877808 85.06019592 C11.45544399 85.05513597 12.13210991 85.05007603 12.82928085 85.04486275 C14.97506426 85.02824133 17.12068707 85.00499905 19.26638794 84.97996521 C25.36183458 84.90976272 31.45734449 84.84924105 37.55297852 84.79785156 C41.29706406 84.7658255 45.04095739 84.72450149 48.78488541 84.67765617 C50.20003902 84.6617874 51.61523657 84.64939742 53.03045273 84.64074898 C63.83597809 84.57374564 74.78543382 84.50477673 84.06616211 78.2746582 C88.42157992 73.80462414 90.15473229 69.70199466 90.44116211 63.5246582 C90.31238626 58.13216952 89.02324585 53.79834744 86.06616211 49.2746582 C78.53199396 42.29177065 65.78343639 41.25254428 55.93725586 40.95825195 C55.26630386 40.93747086 54.59535187 40.91668976 53.90406799 40.89527893 C52.48802317 40.85224907 51.07191753 40.81118034 49.65576172 40.77197266 C47.53393437 40.71299958 45.41237798 40.64769931 43.29077148 40.58129883 C36.99358968 40.39140537 30.70291083 40.25280207 24.40209961 40.27856445 C17.67649334 40.30410935 10.97245375 40.05795768 4.25366211 39.7746582 C3.07223633 39.72696289 1.89081055 39.67926758 0.67358398 39.63012695 C-2.19566019 39.51396322 -5.06478535 39.39544689 -7.93383789 39.2746582 C-9.48355562 36.17522275 -9.09675231 32.89522222 -9.10180664 29.4934082 C-9.10513504 28.72411987 -9.10846344 27.95483154 -9.1118927 27.16223145 C-9.11695793 25.53483682 -9.11930115 23.9074318 -9.11914062 22.2800293 C-9.12132919 19.78457646 -9.13949443 17.28956415 -9.15844727 14.79418945 C-9.1613808 13.21476389 -9.16336586 11.63533621 -9.16430664 10.0559082 C-9.17149216 9.30692261 -9.17867767 8.55793701 -9.18608093 7.78625488 C-9.15303742 0.33129197 -7.03003543 0.02502298 0 0 Z " fill="#1801AC" transform="translate(222.933837890625,11.725341796875)"/>
<path d="M0 0 C0.81774399 0.00718552 1.63548798 0.01437103 2.47801208 0.02177429 C3.31626022 0.02223251 4.15450836 0.02269073 5.01815796 0.02316284 C6.79100458 0.0261858 8.56384854 0.03407341 10.33665466 0.0464325 C13.06030105 0.06469239 15.78360775 0.06694219 18.50730896 0.06669617 C20.22671296 0.07161112 21.94611464 0.07743935 23.66551208 0.08427429 C24.4852803 0.08538712 25.30504852 0.08649994 26.1496582 0.08764648 C31.88930783 0.13619504 31.88930783 0.13619504 33.00535583 1.25224304 C33.10638838 4.05217902 33.14505671 6.82692948 33.13816833 9.62724304 C33.13912506 10.46690613 33.14008179 11.30656921 33.1410675 12.17167664 C33.14174931 13.95048599 33.139895 15.72929782 33.13572693 17.50810242 C33.13037866 20.2405808 33.13567189 22.97289481 33.14207458 25.70536804 C33.1414138 27.42932674 33.14013264 29.15328534 33.13816833 30.87724304 C33.14019257 31.70014832 33.1422168 32.52305359 33.14430237 33.37089539 C33.12030638 39.1372925 33.12030638 39.1372925 32.00535583 40.25224304 C23.09051925 40.67055529 14.10273612 40.1279303 5.19285583 39.75224304 C4.01143005 39.70454773 2.83000427 39.65685242 1.61277771 39.60771179 C-1.25646646 39.49154806 -4.12559162 39.37303173 -6.99464417 39.25224304 C-8.54436189 36.15280759 -8.15755859 32.87280706 -8.16261292 29.47099304 C-8.16594131 28.70170471 -8.16926971 27.93241638 -8.17269897 27.13981628 C-8.17776421 25.51242166 -8.18010742 23.88501664 -8.1799469 22.25761414 C-8.18213547 19.7621613 -8.2003007 17.26714899 -8.21925354 14.77177429 C-8.22218708 13.19234873 -8.22417214 11.61292105 -8.22511292 10.03349304 C-8.23229843 9.28450745 -8.23948395 8.53552185 -8.24688721 7.76383972 C-8.21651608 0.91179457 -6.74725088 0.02740761 0 0 Z " fill="#FECE00" transform="translate(221.99464416503906,11.747756958007813)"/>
<path d="M0 0 C1.2219104 0.01077827 1.2219104 0.01077827 2.46850586 0.02177429 C3.72232056 0.02246162 3.72232056 0.02246162 5.00146484 0.02316284 C6.77011534 0.02618612 8.53876314 0.03407469 10.30737305 0.0464325 C13.02003374 0.06466928 15.73235282 0.06694233 18.44506836 0.06669617 C20.16121715 0.07161209 21.87736363 0.07744074 23.59350586 0.08427429 C24.40811279 0.08538712 25.22271973 0.08649994 26.06201172 0.08764648 C31.79887239 0.13617631 31.79887239 0.13617631 34.03100586 1.25224304 C34.05565596 6.360882 34.07384193 11.46948663 34.0859375 16.57817078 C34.0909779 18.31743472 34.09781016 20.0566944 34.10644531 21.79594421 C34.11852378 24.29050241 34.12423694 26.78500478 34.12866211 29.27958679 C34.13382339 30.06188156 34.13898468 30.84417633 34.14430237 31.650177 C34.14449812 33.51791419 34.0930028 35.38553508 34.03100586 37.25224304 C31.9280579 39.35519101 27.38192571 38.55949827 24.47241211 38.63896179 C23.61292465 38.66448624 22.75343719 38.69001068 21.86790466 38.71630859 C20.04628648 38.76840973 18.22458983 38.8178253 16.40283203 38.86479187 C13.60852689 38.93934229 10.81503811 39.02997358 8.02124023 39.12138367 C6.2549911 39.16989957 4.48871535 39.21745755 2.72241211 39.26396179 C1.88279434 39.29302109 1.04317657 39.32208038 0.17811584 39.35202026 C-1.87070416 39.39667436 -3.9213137 39.33386544 -5.96899414 39.25224304 C-8.48604219 36.73519499 -8.21569013 35.17551405 -8.24688721 31.74064636 C-8.24283875 30.99166077 -8.23879028 30.24267517 -8.23461914 29.47099304 C-8.23653259 28.70170471 -8.23844604 27.93241638 -8.24041748 27.13981628 C-8.24177922 25.51241224 -8.23808353 23.88499734 -8.22973633 22.25761414 C-8.21903635 19.76208673 -8.22963165 17.26727922 -8.24243164 14.77177429 C-8.24111004 13.19234561 -8.23854765 11.61291739 -8.23461914 10.03349304 C-8.2386676 9.28450745 -8.24271606 8.53552185 -8.24688721 7.76383972 C-8.18483879 0.93216975 -6.73511618 0.0274754 0 0 Z " fill="#FFCC03" transform="translate(24.968994140625,181.7477569580078)"/>
</svg>
